# xmcd CD database file
#
# Track frame offsets:
#	150
#	14017
#	27982
#	50138
#	64814
#	84688
#
# Disc length: 1336 seconds
#
# Revision: 0
# Processed by: cddbd v1.5.1PL2 Copyright (c) Steve Scherf et al.
# Submitted via: NeoAudio 9.9.9
#
DISCID=51053606
DTITLE=Wido workshop 31 - widov workshop 31
DYEAR=1900
DGENRE=Country
TTITLE0=Lovers Chain
TTITLE1=Lila Flamenco
TTITLE2=Over The Rainbow x
TTITLE3=Bicyle Waltz
TTITLE4=Back Again
TTITLE5=Shades of Blue
EXTD=
EXTT0=
EXTT1=
EXTT2=
EXTT3=
EXTT4=
EXTT5=
PLAYORDER=
